<svg width="25" height="25" viewBox="0 0 25 25" fill="none" xmlns="http://www.w3.org/2000/svg">
<g clip-path="url(#clip0_335_1676)">
<path d="M1.5 5.62524H22.763C23.0911 5.62524 23.4057 5.75557 23.6377 5.98755C23.8697 6.21954 24 6.53417 24 6.86224V22.8882C24 23.2163 23.8697 23.531 23.6377 23.7629C23.4057 23.9949 23.0911 24.1252 22.763 24.1252H1.5V5.62524Z" stroke="#FF3B00" stroke-width="1.5" stroke-linecap="round" stroke-linejoin="round"/>
<path d="M1.5 5.62524L18.95 1.66424C19.701 1.51224 20.495 1.82224 20.495 2.26424V5.62524" stroke="#FF3B00" stroke-width="1.5" stroke-linecap="round" stroke-linejoin="round"/>
<path d="M12.7501 20.1253C12.7501 20.1253 18.5001 16.7083 18.5001 13.3753C18.5403 12.9597 18.4922 12.5403 18.3591 12.1445C18.226 11.7488 18.0108 11.3856 17.7276 11.0788C17.4443 10.772 17.0995 10.5284 16.7157 10.3641C16.3318 10.1998 15.9176 10.1184 15.5001 10.1253C13.7501 10.1253 12.7501 12.3753 12.7501 12.3753C12.7501 12.3753 11.7501 10.1253 10.0001 10.1253C9.58261 10.1184 9.16838 10.1998 8.78452 10.3641C8.40067 10.5284 8.05585 10.772 7.77264 11.0788C7.48942 11.3856 7.27421 11.7488 7.14108 12.1445C7.00795 12.5403 6.9599 12.9597 7.0001 13.3753C7.0001 16.7083 12.7501 20.1253 12.7501 20.1253Z" stroke="#FF3B00" stroke-width="1.5" stroke-linecap="round" stroke-linejoin="round"/>
</g>
<defs>
<clipPath id="clip0_335_1676">
<rect width="24" height="24" fill="white" transform="translate(0.75 0.875244)"/>
</clipPath>
</defs>
</svg>
