<svg width="25" height="25" viewBox="0 0 25 25" fill="none" xmlns="http://www.w3.org/2000/svg">
<g clip-path="url(#clip0_335_1697)">
<path d="M19.799 7.62519H5.68604C5.34714 7.61137 5.01475 7.72105 4.75063 7.93385C4.48651 8.14665 4.30863 8.44811 4.25004 8.78219L2.25004 22.6972C2.23968 22.8882 2.26983 23.0793 2.3385 23.2578C2.40718 23.4364 2.51283 23.5984 2.64852 23.7332C2.78422 23.8681 2.94689 23.9727 3.12587 24.0402C3.30485 24.1078 3.49609 24.1367 3.68704 24.1252H21.798C21.9889 24.1368 22.1801 24.1078 22.3591 24.0403C22.538 23.9727 22.7006 23.868 22.8362 23.7332C22.9719 23.5983 23.0774 23.4363 23.146 23.2577C23.2145 23.0792 23.2445 22.8882 23.234 22.6972L21.234 8.78219C21.1755 8.44828 20.9977 8.14697 20.7338 7.93419C20.4699 7.72141 20.1378 7.61161 19.799 7.62519Z" stroke="#FF3B00" stroke-width="1.5" stroke-linecap="round" stroke-linejoin="round"/>
<path d="M16.4118 4.68224C16.2475 3.82417 15.7899 3.04993 15.1175 2.49221C14.445 1.93449 13.5995 1.62799 12.7258 1.62524C11.8565 1.62906 11.0152 1.93376 10.3451 2.48758C9.67499 3.0414 9.21729 3.81017 9.0498 4.66324" stroke="#FF3B00" stroke-width="1.5" stroke-linecap="round" stroke-linejoin="round"/>
<path d="M16.6732 13.7203C16.4957 13.5339 16.2823 13.3855 16.0457 13.2842C15.8092 13.1828 15.5545 13.1305 15.2972 13.1305C15.0398 13.1305 14.7852 13.1828 14.5487 13.2842C14.3121 13.3855 14.0986 13.5339 13.9212 13.7203L12.7422 14.9393L11.5632 13.7203C11.3857 13.5341 11.1723 13.3858 10.9359 13.2845C10.6995 13.1832 10.4449 13.131 10.1877 13.131C9.93047 13.131 9.67592 13.1832 9.43948 13.2845C9.20305 13.3858 8.98964 13.5341 8.81219 13.7203C8.44633 14.1035 8.24219 14.613 8.24219 15.1428C8.24219 15.6726 8.44633 16.1821 8.81219 16.5653L12.3242 20.1953C12.3782 20.252 12.4431 20.2971 12.515 20.3279C12.587 20.3587 12.6644 20.3746 12.7427 20.3746C12.821 20.3746 12.8984 20.3587 12.9703 20.3279C13.0423 20.2971 13.1072 20.252 13.1612 20.1953L16.6732 16.5653C17.0386 16.1818 17.2424 15.6725 17.2424 15.1428C17.2424 14.6131 17.0386 14.1037 16.6732 13.7203Z" stroke="#FF3B00" stroke-width="1.5" stroke-linecap="round" stroke-linejoin="round"/>
</g>
<defs>
<clipPath id="clip0_335_1697">
<rect width="24" height="24" fill="white" transform="translate(0.75 0.875244)"/>
</clipPath>
</defs>
</svg>
