<svg width="25" height="25" viewBox="0 0 25 25" fill="none" xmlns="http://www.w3.org/2000/svg">
<g clip-path="url(#clip0_335_1713)">
<path d="M8.74839 11.0903C11.3568 11.0903 13.4714 8.97573 13.4714 6.36729C13.4714 3.75885 11.3568 1.64429 8.74839 1.64429C6.13995 1.64429 4.02539 3.75885 4.02539 6.36729C4.02539 8.97573 6.13995 11.0903 8.74839 11.0903Z" stroke="#FF3B00" stroke-width="1.5" stroke-linecap="round" stroke-linejoin="round"/>
<path d="M2.5752 20.6443V24.0643" stroke="#FF3B00" stroke-width="1.5" stroke-linecap="round" stroke-linejoin="round"/>
<path d="M15.3499 2.5662C16.0555 2.04585 16.8921 1.73218 17.7658 1.66031C18.6396 1.58843 19.5162 1.76119 20.2973 2.15924C21.0785 2.55729 21.7335 3.16492 22.1889 3.9141C22.6443 4.66327 22.8822 5.52442 22.8759 6.40114C22.8696 7.27785 22.6195 8.13552 22.1534 8.87811C21.6874 9.62071 21.0238 10.2189 20.237 10.6058C19.4502 10.9926 18.5713 11.1529 17.6987 11.0685C16.826 10.9842 15.994 10.6586 15.2959 10.1282" stroke="#FF3B00" stroke-width="1.5" stroke-linecap="round" stroke-linejoin="round"/>
<path d="M23.5 24.1062V17.5672C23.4998 16.63 23.2963 15.704 22.9037 14.8531C22.511 14.0021 21.9385 13.2464 21.2256 12.638C20.5127 12.0297 19.6763 11.5831 18.7742 11.3292C17.872 11.0753 16.9256 11.02 16 11.1672" stroke="#FF3B00" stroke-width="1.5" stroke-linecap="round" stroke-linejoin="round"/>
<path d="M7.18779 16.6432C7.02529 17.1822 6.65535 17.6346 6.15933 17.9009C5.66332 18.1672 5.08184 18.2256 4.54279 18.0632L2.51079 17.4502C2.24394 17.3698 1.99555 17.2376 1.7798 17.0611C1.56404 16.8847 1.38515 16.6675 1.25334 16.4219C0.987134 15.926 0.92884 15.3446 1.09129 14.8057C1.25373 14.2668 1.62361 13.8145 2.11955 13.5483C2.61549 13.2821 3.19687 13.2238 3.73579 13.3862L5.76779 13.9982C6.3068 14.1607 6.75921 14.5306 7.0255 15.0267C7.2918 15.5227 7.35017 16.1042 7.18779 16.6432Z" stroke="#FF3B00" stroke-width="1.5" stroke-linecap="round" stroke-linejoin="round"/>
<path d="M15.5284 24.0642V17.5642C15.5281 16.7138 15.3604 15.8717 15.0347 15.0861C14.709 14.3005 14.2317 13.5867 13.6302 12.9856C13.0287 12.3844 12.3146 11.9076 11.5288 11.5824C10.743 11.2572 9.90083 11.0899 9.05039 11.0902C8.09202 11.1111 7.14889 11.3344 6.28288 11.7454C5.41687 12.1565 4.64755 12.7459 4.02539 13.4752" stroke="#FF3B00" stroke-width="1.5" stroke-linecap="round" stroke-linejoin="round"/>
</g>
<defs>
<clipPath id="clip0_335_1713">
<rect width="24" height="24" fill="white" transform="translate(0.25 0.875244)"/>
</clipPath>
</defs>
</svg>
